<mxfile host="app.diagrams.net" modified="2023-03-17T18:23:27.790Z" agent="5.0 (Windows NT 10.0; Win64; x64) AppleWebKit/537.36 (KHTML, like Gecko) Chrome/111.0.0.0 Safari/537.36" etag="G2eV36NaYBuYJS6_NwbV" version="21.0.6" type="github">
  <diagram name="Page-1" id="bFWIs-3CNg-cBj2Cr1kF">
    <mxGraphModel dx="2035" dy="900" grid="1" gridSize="10" guides="1" tooltips="1" connect="1" arrows="1" fold="1" page="1" pageScale="1" pageWidth="850" pageHeight="1100" math="0" shadow="0">
      <root>
        <mxCell id="0" />
        <mxCell id="1" parent="0" />
        <mxCell id="AimBy2MOZz1IobJSiMjq-141" value="" style="rounded=0;whiteSpace=wrap;html=1;" vertex="1" parent="1">
          <mxGeometry x="425" y="50" width="605" height="40" as="geometry" />
        </mxCell>
        <mxCell id="AimBy2MOZz1IobJSiMjq-7" value="" style="rounded=0;whiteSpace=wrap;html=1;fillColor=#FFFFFF;shadow=1;" vertex="1" parent="1">
          <mxGeometry x="40" y="40" width="1000" height="600" as="geometry" />
        </mxCell>
        <mxCell id="AimBy2MOZz1IobJSiMjq-11" value="&lt;font style=&quot;font-size: 24px;&quot;&gt;Chemical Waste Name:&lt;/font&gt;" style="text;html=1;strokeColor=none;fillColor=#FFF0D6;align=center;verticalAlign=middle;whiteSpace=wrap;rounded=0;" vertex="1" parent="1">
          <mxGeometry x="50" y="50" width="360" height="40" as="geometry" />
        </mxCell>
        <mxCell id="AimBy2MOZz1IobJSiMjq-19" value="&lt;i&gt;&lt;font style=&quot;font-size: 24px;&quot;&gt;Input&lt;/font&gt;&lt;/i&gt;" style="text;html=1;strokeColor=none;fillColor=#EDFDFF;align=center;verticalAlign=middle;whiteSpace=wrap;rounded=0;" vertex="1" parent="1">
          <mxGeometry x="430" y="50" width="590" height="40" as="geometry" />
        </mxCell>
        <mxCell id="AimBy2MOZz1IobJSiMjq-142" value="&lt;font style=&quot;font-size: 24px;&quot;&gt;Type of Tox Test:&lt;/font&gt;" style="text;html=1;strokeColor=none;fillColor=#FFF0D6;align=center;verticalAlign=middle;whiteSpace=wrap;rounded=0;" vertex="1" parent="1">
          <mxGeometry x="50" y="100" width="360" height="40" as="geometry" />
        </mxCell>
        <mxCell id="AimBy2MOZz1IobJSiMjq-143" value="&lt;i&gt;&lt;font style=&quot;font-size: 24px;&quot;&gt;Input&lt;/font&gt;&lt;/i&gt;" style="text;html=1;strokeColor=none;fillColor=#EDFDFF;align=center;verticalAlign=middle;whiteSpace=wrap;rounded=0;" vertex="1" parent="1">
          <mxGeometry x="430" y="100" width="590" height="40" as="geometry" />
        </mxCell>
        <mxCell id="AimBy2MOZz1IobJSiMjq-144" value="&lt;font style=&quot;font-size: 24px;&quot;&gt;Tox Test Result&lt;/font&gt;" style="text;html=1;strokeColor=none;fillColor=#FFF0D6;align=center;verticalAlign=middle;whiteSpace=wrap;rounded=0;" vertex="1" parent="1">
          <mxGeometry x="50" y="150" width="360" height="40" as="geometry" />
        </mxCell>
        <mxCell id="AimBy2MOZz1IobJSiMjq-145" value="&lt;i&gt;&lt;font style=&quot;font-size: 24px;&quot;&gt;Input&lt;/font&gt;&lt;/i&gt;" style="text;html=1;strokeColor=none;fillColor=#EDFDFF;align=center;verticalAlign=middle;whiteSpace=wrap;rounded=0;" vertex="1" parent="1">
          <mxGeometry x="430" y="150" width="590" height="40" as="geometry" />
        </mxCell>
        <mxCell id="AimBy2MOZz1IobJSiMjq-146" value="&lt;font style=&quot;font-size: 24px;&quot;&gt;Percent Composition of Waste:&lt;/font&gt;" style="text;html=1;strokeColor=none;fillColor=#FFF0D6;align=center;verticalAlign=middle;whiteSpace=wrap;rounded=0;" vertex="1" parent="1">
          <mxGeometry x="50" y="200" width="360" height="40" as="geometry" />
        </mxCell>
        <mxCell id="AimBy2MOZz1IobJSiMjq-147" value="&lt;i&gt;&lt;font style=&quot;font-size: 24px;&quot;&gt;Input&lt;/font&gt;&lt;/i&gt;" style="text;html=1;strokeColor=none;fillColor=#EDFDFF;align=center;verticalAlign=middle;whiteSpace=wrap;rounded=0;" vertex="1" parent="1">
          <mxGeometry x="430" y="200" width="590" height="40" as="geometry" />
        </mxCell>
        <mxCell id="AimBy2MOZz1IobJSiMjq-148" value="&lt;i&gt;&lt;font style=&quot;font-size: 24px;&quot;&gt;Results:&lt;/font&gt;&lt;/i&gt;" style="rounded=1;whiteSpace=wrap;html=1;" vertex="1" parent="1">
          <mxGeometry x="50" y="360" width="980" height="270" as="geometry" />
        </mxCell>
        <mxCell id="AimBy2MOZz1IobJSiMjq-149" value="&lt;i&gt;&lt;font style=&quot;font-size: 24px;&quot;&gt;Calculate&lt;/font&gt;&lt;/i&gt;" style="rounded=1;whiteSpace=wrap;html=1;" vertex="1" parent="1">
          <mxGeometry x="415" y="270" width="250" height="60" as="geometry" />
        </mxCell>
        <mxCell id="AimBy2MOZz1IobJSiMjq-150" value="" style="html=1;shadow=0;dashed=0;align=center;verticalAlign=middle;shape=mxgraph.arrows2.arrow;dy=0.6;dx=40;direction=south;notch=0;fillColor=#000000;" vertex="1" parent="1">
          <mxGeometry x="370" y="105" width="30" height="30" as="geometry" />
        </mxCell>
      </root>
    </mxGraphModel>
  </diagram>
</mxfile>
